<svg width="1000" height="1000" viewBox="0 0 1000 1000" fill="none" xmlns="http://www.w3.org/2000/svg">
<rect width="1000" height="1000" rx="54" fill="#754EA0"/>
<path d="M431.481 197.541C431.585 197.537 511.978 194.68 558.655 197.541C605.363 200.404 680.274 241.94 713.756 296.197C747.238 350.454 749.188 452.075 707.85 503.377C666.511 554.678 613.362 586.248 564.149 590.194C514.937 594.14 512.968 594.14 465.725 594.14C418.481 594.14 399.078 601.116 399.208 645.442C399.338 689.768 399.208 710.555 399.208 736.206V773.696C399.208 803.293 385.016 817.104 357.87 817.104H270.843C264.937 817.104 261 813.158 261 806.557V221.219C261 201.487 268.874 197.541 284.622 197.541H431.481ZM554.307 334.048C509.961 308.647 441.168 319.944 423.451 330.101C406.669 338.876 396.826 349.833 396.826 349.833C377.141 367.372 355.361 399.178 344.832 422.518C340.119 436.753 338.054 444.147 335.803 456.026C344.817 443.935 358.331 430 358.375 429.954C358.375 429.954 386.774 406.599 398.795 401.13C406.669 396.255 413.461 392.642 424.386 388.943C437.967 384.345 456.544 384.069 459.818 384.069C469.66 383.376 485.586 390.189 487.372 391.381C487.372 391.381 510.999 408.441 528.716 410.879C542.989 412.842 558.552 412.734 563.023 411.738C562.37 412.243 561.725 412.75 561.083 413.256L561.082 413.257C554.482 418.451 540.148 424.818 524.779 426.785C513.884 428.18 492.608 422.917 483.436 419.06C474.333 415.233 457.135 411.279 448.008 412.973C432.26 415.896 433.728 415.169 422.417 420.865C412.837 425.69 412.574 426.785 408.033 429.954C399.992 435.566 386.984 448.489 383.047 456.382C390.361 465.279 388.953 464.634 396.826 470.194C424.385 490.434 448.008 510.121 493.283 507.683C538.559 505.246 569.41 487.725 605.487 456.026C632.39 427.52 647.062 408.645 666.511 372.258C660.605 375.483 654.699 377.456 636.983 372.258C631.382 370.614 621.739 367.17 617.299 365.617C601.677 360.154 595.645 357.726 554.307 334.048Z" fill="#FDFFE5"/>
</svg>
